HIERARCHY
ROOT joint_Root
{
	OFFSET 0.0 0.0 0.0
	CHANNELS 6 Xposition Yposition Zposition Zrotation Xrotation Yrotation 
	JOINT Hips
	{
		OFFSET -0.726466 93.3139 -2.00062
		CHANNELS 6 Xposition Yposition Zposition Zrotation Xrotation Yrotation 
		JOINT Spine
		{
			OFFSET 15.7357 0.0 0.0
			CHANNELS 6 Xposition Yposition Zposition Zrotation Xrotation Yrotation 
			JOINT Chest
			{
				OFFSET 8.98455 -0.406207 0.0
				CHANNELS 6 Xposition Yposition Zposition Zrotation Xrotation Yrotation 
				JOINT Neck
				{
					OFFSET 16.3773 0.0 0.0
					CHANNELS 6 Xposition Yposition Zposition Zrotation Xrotation Yrotation 
					JOINT Head
					{
						OFFSET 6.45672 0.0 0.0
						CHANNELS 6 Xposition Yposition Zposition Zrotation Xrotation Yrotation 
						End Site
						{
							OFFSET 0.0 0.0 0.0
						}
					}
				}
				JOINT Shoulder_L
				{
					OFFSET 12.9942 -0.242716 4.98039
					CHANNELS 6 Xposition Yposition Zposition Zrotation Xrotation Yrotation 
					JOINT UpperArm_L
					{
						OFFSET 5.34809 0.0 0.0
						CHANNELS 6 Xposition Yposition Zposition Zrotation Xrotation Yrotation 
						JOINT LowerArm_L
						{
							OFFSET 24.3286 1.87007e-05 0.0
							CHANNELS 6 Xposition Yposition Zposition Zrotation Xrotation Yrotation 
							JOINT Hand_L
							{
								OFFSET 22.2916 0.0 0.0
								CHANNELS 6 Xposition Yposition Zposition Zrotation Xrotation Yrotation 
								End Site
								{
									OFFSET 0.0 0.0 0.0
								}
							}
						}
					}
				}
				JOINT Shoulder_R
				{
					OFFSET 12.9945 -0.242716 -4.98039
					CHANNELS 6 Xposition Yposition Zposition Zrotation Xrotation Yrotation 
					JOINT UpperArm_R
					{
						OFFSET -5.34813 0.0 0.0
						CHANNELS 6 Xposition Yposition Zposition Zrotation Xrotation Yrotation 
						JOINT LowerArm_R
						{
							OFFSET -24.3289 0.000322201 0.0
							CHANNELS 6 Xposition Yposition Zposition Zrotation Xrotation Yrotation 
							JOINT Hand_R
							{
								OFFSET -22.2915 -0.000108084 0.0
								CHANNELS 6 Xposition Yposition Zposition Zrotation Xrotation Yrotation 
								End Site
								{
									OFFSET 0.0 0.0 0.0
								}
							}
						}
					}
				}
			}
		}
		JOINT UpperLeg_L
		{
			OFFSET -2.19248 -6.46944 0.0
			CHANNELS 6 Xposition Yposition Zposition Zrotation Xrotation Yrotation 
			JOINT LowerLeg_L
			{
				OFFSET 39.0811 0.0 -1.23785e-05
				CHANNELS 6 Xposition Yposition Zposition Zrotation Xrotation Yrotation 
				JOINT Foot_L
				{
					OFFSET 40.9854 0.0 -1.26872e-05
					CHANNELS 6 Xposition Yposition Zposition Zrotation Xrotation Yrotation 
					JOINT Toes_L
					{
						OFFSET 11.7543 0.0 0.0
						CHANNELS 6 Xposition Yposition Zposition Zrotation Xrotation Yrotation 
						End Site
						{
							OFFSET 0.0 0.0 0.0
						}
					}
				}
			}
		}
		JOINT UpperLeg_R
		{
			OFFSET -2.19251 6.46944 0.0
			CHANNELS 6 Xposition Yposition Zposition Zrotation Xrotation Yrotation 
			JOINT LowerLeg_R
			{
				OFFSET -39.0811 -0.00228153 -0.0401928
				CHANNELS 6 Xposition Yposition Zposition Zrotation Xrotation Yrotation 
				JOINT Foot_R
				{
					OFFSET -40.9854 0.0 0.0
					CHANNELS 6 Xposition Yposition Zposition Zrotation Xrotation Yrotation 
					JOINT Toes_R
					{
						OFFSET -11.7543 0.0 0.0
						CHANNELS 6 Xposition Yposition Zposition Zrotation Xrotation Yrotation 
						End Site
						{
							OFFSET 0.0 0.0 0.0
						}
					}
				}
			}
		}
	}
}
MOTION
Frames:	5
Frame Time:	0.0333333
0.000000 0.000000 0.000000 0.000000 0.000000 -0.000000 -0.514742 92.309200 -1.276220 88.074100 -0.020764 5.377130 15.735700 0.000005 -0.000001 84.540300 84.791800 -84.020100 8.984550 -0.406207 -0.000000 2.608240 -1.013630 1.062510 16.377300 -0.000001 -0.000001 2.349640 -2.209520 0.209479 6.456720 -0.000001 -0.000000 2.404540 -2.512610 -2.429220 12.994200 -0.242716 4.980390 -90.037700 0.118921 -72.394600 5.348090 -0.000007 -0.000001 -68.455100 40.326400 -14.032500 24.328600 0.000019 0.000005 1.561130 3.892350 -21.874100 22.291600 -0.000001 0.000005 5.292130 5.462510 -5.092690 12.994500 -0.242716 -4.980390 88.377000 5.273930 -72.867900 -5.348130 -0.000001 -0.000004 -64.969600 41.096000 -16.505300 -24.328900 0.000322 -0.000009 2.313870 7.542420 -17.117300 -22.291500 -0.000108 -0.000004 8.012020 5.378560 -2.250890 -2.192480 -6.469440 -0.000000 -175.275000 -8.450620 -2.185130 39.081100 -0.000007 -0.000012 -0.103073 0.238795 23.346900 40.985400 -0.000006 -0.000013 0.163825 4.538580 -65.957000 11.754300 -0.000000 0.000003 -0.000051 -0.000579 -16.600000 -2.192510 6.469440 -0.000001 179.305000 15.350900 -179.150000 -39.081100 -0.002282 -0.040193 -0.055926 0.166538 19.583700 -40.985400 0.000008 0.000006 2.345180 7.309590 -65.293700 -11.754300 -0.000006 -0.000006 -0.007530 -0.084153 -19.999400
0.000000 0.000000 0.000000 0.000000 0.000000 -0.000000 -0.504621 92.312400 -1.306080 88.068400 -0.060185 5.424100 15.735700 0.000005 -0.000001 84.837900 84.777900 -84.330900 8.984550 -0.406207 -0.000000 2.640630 -0.961555 1.035130 16.377300 -0.000001 -0.000001 2.368970 -2.186840 0.236377 6.456720 -0.000001 -0.000000 2.401910 -2.580030 -2.448290 12.994200 -0.242716 4.980390 -90.015800 0.049757 -72.379400 5.348090 -0.000007 -0.000001 -68.524600 40.105700 -13.999900 24.328600 0.000019 0.000005 1.587450 3.958710 -21.871200 22.291600 -0.000001 0.000005 5.251570 5.462100 -5.077770 12.994500 -0.242716 -4.980390 88.354800 5.318600 -72.783500 -5.348130 -0.000001 -0.000004 -63.746200 41.532300 -17.078300 -24.328900 0.000322 -0.000009 2.587850 7.765720 -18.499200 -22.291500 -0.000108 -0.000004 6.337060 5.369430 -1.965550 -2.192480 -6.469440 -0.000000 -175.278000 -8.485330 -2.151910 39.081100 -0.000007 -0.000012 -0.102791 0.238168 23.344700 40.985400 -0.000006 -0.000013 0.170270 4.495060 -65.938800 11.754300 -0.000000 0.000003 -0.000055 -0.000612 -16.601300 -2.192510 6.469440 -0.000001 179.300000 15.335800 -179.128000 -39.081100 -0.002282 -0.040193 -0.054642 0.162871 19.590200 -40.985400 0.000008 0.000006 2.404460 7.314190 -65.283300 -11.754300 -0.000006 -0.000006 -0.007211 -0.081467 -19.889800
0.000000 0.000000 0.000000 0.000000 0.000000 -0.000000 -0.490810 92.311300 -1.337510 88.060700 -0.096814 5.413060 15.735700 0.000005 -0.000001 84.809200 84.776500 -84.308600 8.984550 -0.406207 -0.000000 2.642790 -0.966703 1.022610 16.377300 -0.000001 -0.000001 2.326480 -2.131300 0.250033 6.456720 -0.000001 -0.000000 2.435510 -2.532060 -2.508270 12.994200 -0.242716 4.980390 -89.992200 -0.024459 -72.309600 5.348090 -0.000007 -0.000001 -68.551600 39.966300 -14.018600 24.328600 0.000019 0.000005 1.590750 3.971150 -21.850200 22.291600 -0.000001 0.000005 5.321510 5.462550 -5.094250 12.994500 -0.242716 -4.980390 88.306600 5.430380 -72.651100 -5.348130 -0.000001 -0.000004 -61.829600 41.089900 -17.953400 -24.328900 0.000322 -0.000009 3.479760 9.112190 -21.006600 -22.291500 -0.000108 -0.000004 3.905390 5.362340 -1.749430 -2.192480 -6.469440 -0.000000 -175.279000 -8.530060 -2.195760 39.081100 -0.000007 -0.000012 -0.102034 0.236068 23.375100 40.985400 -0.000006 -0.000013 0.185099 4.506000 -65.935400 11.754300 -0.000000 0.000003 -0.000057 -0.000632 -16.602000 -2.192510 6.469440 -0.000001 179.307000 15.306800 -179.174000 -39.081100 -0.002282 -0.040193 -0.056102 0.166907 19.597300 -40.985400 0.000008 0.000006 2.304680 7.317200 -65.240200 -11.754300 -0.000006 -0.000006 -0.007426 -0.083284 -19.963900
0.000000 0.000000 0.000000 0.000000 0.000000 -0.000000 -0.449838 92.321400 -1.406880 88.057500 -0.202510 5.393610 15.735700 0.000005 -0.000001 84.699200 84.773600 -84.197400 8.984550 -0.406207 -0.000000 2.647010 -0.987245 1.025440 16.377300 -0.000001 -0.000001 2.299470 -2.013580 0.250916 6.456720 -0.000001 -0.000000 2.358880 -2.381490 -2.642350 12.994200 -0.242716 4.980390 -89.973600 -0.082272 -72.223500 5.348090 -0.000007 -0.000001 -68.619800 39.762300 -13.958000 24.328600 0.000019 0.000005 1.563980 3.890540 -21.919500 22.291600 -0.000001 0.000005 5.365070 5.460600 -5.022960 12.994500 -0.242716 -4.980390 88.256100 5.499960 -72.376900 -5.348130 -0.000001 -0.000004 -58.884300 40.207200 -19.460200 -24.328900 0.000322 -0.000009 4.561000 10.002300 -24.669300 -22.291500 -0.000108 -0.000004 2.666920 5.358940 -1.646920 -2.192480 -6.469440 -0.000000 -175.302000 -8.634160 -2.231610 39.081100 -0.000007 -0.000012 -0.101495 0.235194 23.342000 40.985400 -0.000006 -0.000013 0.214832 4.506250 -65.882500 11.754300 -0.000000 0.000003 -0.000057 -0.000634 -16.602100 -2.192510 6.469440 -0.000001 179.307000 15.233400 -179.242000 -39.081100 -0.002282 -0.040193 -0.055364 0.164917 19.588400 -40.985400 0.000008 0.000006 2.380850 7.364140 -65.194100 -11.754300 -0.000006 -0.000006 -0.007360 -0.082723 -19.941000
0.000000 0.000000 0.000000 0.000000 0.000000 -0.000000 -0.379676 92.328700 -1.455880 88.058300 -0.323871 5.426510 15.735700 0.000005 -0.000001 84.418800 84.746200 -83.913700 8.984550 -0.406207 -0.000000 2.696980 -1.043360 1.033750 16.377300 -0.000001 -0.000001 2.268860 -1.885500 0.218845 6.456720 -0.000001 -0.000000 2.278800 -2.063720 -2.871550 12.994200 -0.242716 4.980390 -89.952100 -0.149107 -72.173400 5.348090 -0.000007 -0.000001 -68.657500 39.624900 -13.913300 24.328600 0.000019 0.000005 1.533470 3.806310 -21.962000 22.291600 -0.000001 0.000005 5.409930 5.460270 -5.010550 12.994500 -0.242716 -4.980390 88.186000 5.592290 -71.995800 -5.348130 -0.000001 -0.000004 -55.454800 37.707200 -21.105500 -24.328900 0.000322 -0.000009 6.068130 10.680500 -29.841000 -22.291500 -0.000108 -0.000004 2.111790 5.354550 -1.514340 -2.192480 -6.469440 -0.000000 -175.349000 -8.699630 -2.205340 39.081100 -0.000007 -0.000012 -0.099796 0.231518 23.318500 40.985400 -0.000006 -0.000013 0.248724 4.424400 -65.850800 11.754300 -0.000000 0.000003 -0.000052 -0.000587 -16.600300 -2.192510 6.469440 -0.000001 179.249000 15.165400 -179.242000 -39.081100 -0.002282 -0.040193 -0.056090 0.167248 19.556900 -40.985400 0.000008 0.000006 2.268370 7.472960 -65.107000 -11.754300 -0.000006 -0.000006 -0.007441 -0.083409 -19.969100
